{"title":"HUMSHAKALS (2014) - 1CD - DVDRip - Hindi - x264 - MP3 - ESubs -","uid":10792811,"size":744536748,"categoryP":"video","categoryS":"movies","magnet":"?xt=urn:btih:6f1b4381d067ff4b59d3c96000844dee3e5e6939&amp;dn=HUMSHAKALS+%282014%29+-+1CD+-+DVDRip+-+Hindi+-+x264+-+MP3+-+ESubs+-+&amp;tr=udp%3A%2F%2Ftracker.openbittorrent.com%3A80&amp;tr=udp%3A%2F%2Fopen.demonii.com%3A1337&amp;tr=udp%3A%2F%2Ftracker.coppersurfer.tk%3A6969&amp;tr=udp%3A%2F%2Fexodus.desync.com%3A6969","seeders":7,"leechers":9,"uploader":"inovai","files":6,"time":1408269502,"description":"HUMSHAKALS (2014) - 1CD - DVDRip - Hindi - x264 - MP3 - ESubs - TEAMTNT EXCLUSIVE\n\nScreenshots:\n &lt;a href=&quot;\nhttp://img.primetimeshow.in/share.php?id=5D8D_53F06034&quot; rel=&quot;nofollow&quot; target=&quot;_NEW&quot;&gt;\nhttp://img.primetimeshow.in/share.php?id=5D8D_53F06034&lt;/a&gt;\n &lt;a href=&quot;\nhttp://img.primetimeshow.in/share.php?id=6EB8_53F06034&quot; rel=&quot;nofollow&quot; target=&quot;_NEW&quot;&gt;\nhttp://img.primetimeshow.in/share.php?id=6EB8_53F06034&lt;/a&gt;\n &lt;a href=&quot;\nhttp://img.primetimeshow.in/share.php?id=DB8B_53F06034&quot; rel=&quot;nofollow&quot; target=&quot;_NEW&quot;&gt;\nhttp://img.primetimeshow.in/share.php?id=DB8B_53F06034&lt;/a&gt;\n &lt;a href=&quot;\nhttp://img.primetimeshow.in/share.php?id=E2F1_53F06034&quot; rel=&quot;nofollow&quot; target=&quot;_NEW&quot;&gt;\nhttp://img.primetimeshow.in/share.php?id=E2F1_53F06034&lt;/a&gt;\n &lt;a href=&quot;\nhttp://img.primetimeshow.in/share.php?id=2BF6_53F06034&quot; rel=&quot;nofollow&quot; target=&quot;_NEW&quot;&gt;\nhttp://img.primetimeshow.in/share.php?id=2BF6_53F06034&lt;/a&gt;\n\nGeneral Info:-\nUnique ID : 213928684174728083429599069764855588839 (0xA0F12A77368AC6169954CC982A58E7E7)\nComplete name : HUMSHAKALS (2014) - 1CD - DVDRip - Hindi - x264 - MP3 - ESubs - TEAMTNT EXCLUSIVE.mkv\nFormat : Matroska\nFormat version : Version 2\nFile size : 700 MiB\nDuration : 2h 22mn\nOverall bit rate : 686 Kbps\nEncoded date : UTC 2014-08-16 15:45:54\nWriting application : mkvmerge v7.1.0 ('Good Love') 32bit built on Jul 27 2014 12:59:18\nWriting library : libebml v1.3.0 + libmatroska v1.4.1\n\n\nVideo\nID : 1\nFormat : AVC\nFormat/Info : Advanced Video Codec\nFormat profile : &lt;a class=&quot;__cf_email__&quot; href=&quot;/cdn-cgi/l/email-protection&quot; data-cfemail=&quot;440c2d232c0408776a74&quot;&gt;[email&amp;#160;protected]&lt;/a&gt;&lt;script cf-hash='f9e31' type=&quot;text/javascript&quot;&gt;\n/* &lt;![CDATA[ */!function(){try{var t=&quot;currentScript&quot;in document?document.currentScript:function(){for(var t=document.getElementsByTagName(&quot;script&quot;),e=t.length;e--;)if(t[e].getAttribute(&quot;cf-hash&quot;))return t[e]}();if(t&amp;&amp;t.previousSibling){var e,r,n,i,c=t.previousSibling,a=c.getAttribute(&quot;data-cfemail&quot;);if(a){for(e=&quot;&quot;,r=parseInt(a.substr(0,2),16),n=2;a.length-n;n+=2)i=parseInt(a.substr(n,2),16)^r,e+=String.fromCharCode(i);e=document.createTextNode(e),c.parentNode.replaceChild(e,c)}}}catch(u){}}();/* ]]&gt; */&lt;/script&gt;\nFormat settings, CABAC : Yes\nFormat settings, ReFrames : 4 frames\nCodec ID : V_MPEG4/ISO/AVC\nDuration : 2h 22mn\nBit rate : 604 Kbps\nWidth : 640 pixels\nHeight : 272 pixels\nDisplay aspect ratio : 2.35:1\nFrame rate mode : Constant\nFrame rate : 29.970 fps\nColor space : YUV\nChroma subsampling : 4:2:0\nBit depth : 8 bits\nScan type : Progressive\nBits/(Pixel*Frame) : 0.116\nStream size : 605 MiB (86%)\nLanguage : English\nDefault : Yes\nForced : No\n\n\nAudio\nID : 2\nFormat : MPEG Audio\nFormat version : Version 1\nFormat profile : Layer 3\nMode : Joint stereo\nMode extension : MS Stereo\nCodec ID : A_MPEG/L3\nCodec ID/Hint : MP3\nDuration : 2h 22mn\nBit rate mode : Constant\nBit rate : 80.0 Kbps\nChannel(s) : 2 channels\nSampling rate : 32.0 KHz\nCompression mode : Lossy\nStream size : 81.7 MiB (12%)\nWriting library : LAME3.99r\nDefault : Yes\nForced : No\n\n\nSAMPLE WITH IN TORRENT!!\n\nTHanks to TeamTNT and mafiaking!!\n\nSharing is Caring!!","torrent":{"xt":"urn:btih:6f1b4381d067ff4b59d3c96000844dee3e5e6939","amp;dn":"HUMSHAKALS+%282014%29+-+1CD+-+DVDRip+-+Hindi+-+x264+-+MP3+-+ESubs+-+","amp;tr":["udp%3A%2F%2Ftracker.openbittorrent.com%3A80","udp%3A%2F%2Fopen.demonii.com%3A1337","udp%3A%2F%2Ftracker.coppersurfer.tk%3A6969","udp%3A%2F%2Fexodus.desync.com%3A6969"],"infoHash":"6f1b4381d067ff4b59d3c96000844dee3e5e6939","infoHashBuffer":{"type":"Buffer","data":[111,27,67,129,208,103,255,75,89,211,201,96,0,132,77,238,62,94,105,57]},"announce":[],"urlList":[]}}